<svg width="32" height="34" viewBox="0 0 32 34" fill="none" xmlns="http://www.w3.org/2000/svg">
<g id="iconixto/linear/arrow-square-down-1" filter="url(#filter0_d_31_113)">
<g id="icon">
<path d="M11.9521 12.2145C11.6104 11.8728 11.0564 11.8728 10.7147 12.2145C10.3729 12.5562 10.3729 13.1103 10.7147 13.452L13.7314 16.4687C14.9843 17.7217 17.0157 17.7217 18.2687 16.4687L21.2854 13.452C21.6271 13.1103 21.6271 12.5562 21.2854 12.2145C20.9437 11.8728 20.3897 11.8728 20.048 12.2145L17.0312 15.2313C16.4617 15.8008 15.5384 15.8008 14.9688 15.2313L11.9521 12.2145Z" fill="#F5F0FF"/>
<path fill-rule="evenodd" clip-rule="evenodd" d="M4.33337 13.9999C4.33337 18.3615 4.33337 20.5422 5.2712 22.1666C5.88557 23.2307 6.76924 24.1144 7.83337 24.7288C9.45773 25.6666 11.6385 25.6666 16 25.6666C20.3616 25.6666 22.5424 25.6666 24.1667 24.7288C25.2308 24.1144 26.1145 23.2307 26.7289 22.1666C27.6667 20.5422 27.6667 18.3615 27.6667 13.9999C27.6667 9.63838 27.6667 7.45761 26.7289 5.83325C26.1145 4.76912 25.2308 3.88545 24.1667 3.27107C22.5424 2.33325 20.3616 2.33325 16 2.33325C11.6385 2.33325 9.45773 2.33325 7.83337 3.27107C6.76924 3.88545 5.88557 4.76912 5.2712 5.83325C4.33337 7.45761 4.33337 9.63838 4.33337 13.9999ZM25.2133 6.70825C25.5028 7.20969 25.7004 7.87605 25.8066 9.0481C25.915 10.2442 25.9167 11.7869 25.9167 13.9999C25.9167 16.2129 25.915 17.7556 25.8066 18.9517C25.7004 20.1238 25.5028 20.7902 25.2133 21.2916C24.7526 22.0897 24.0898 22.7524 23.2917 23.2132C22.7903 23.5027 22.1239 23.7003 20.9519 23.8065C19.7557 23.9149 18.213 23.9166 16 23.9166C13.7871 23.9166 12.2443 23.9149 11.0482 23.8065C9.87617 23.7003 9.20981 23.5027 8.70837 23.2132C7.91027 22.7524 7.24752 22.0897 6.78674 21.2916C6.49724 20.7902 6.29969 20.1238 6.19346 18.9517C6.08505 17.7556 6.08337 16.2129 6.08337 13.9999C6.08337 11.7869 6.08505 10.2442 6.19346 9.0481C6.29969 7.87605 6.49724 7.20969 6.78674 6.70825C7.24752 5.91015 7.91027 5.2474 8.70837 4.78662C9.20981 4.49711 9.87617 4.29956 11.0482 4.19334C12.2443 4.08493 13.7871 4.08325 16 4.08325C18.213 4.08325 19.7557 4.08493 20.9519 4.19334C22.1239 4.29956 22.7903 4.49711 23.2917 4.78662C24.0898 5.2474 24.7526 5.91015 25.2133 6.70825Z" fill="#F5F0FF"/>
</g>
</g>
<defs>
<filter id="filter0_d_31_113" x="-2" y="0" width="36" height="36" filterUnits="userSpaceOnUse" color-interpolation-filters="sRGB">
<feFlood flood-opacity="0" result="BackgroundImageFix"/>
<feColorMatrix in="SourceAlpha" type="matrix" values="0 0 0 0 0 0 0 0 0 0 0 0 0 0 0 0 0 0 127 0" result="hardAlpha"/>
<feOffset dy="4"/>
<feGaussianBlur stdDeviation="2"/>
<feComposite in2="hardAlpha" operator="out"/>
<feColorMatrix type="matrix" values="0 0 0 0 0 0 0 0 0 0 0 0 0 0 0 0 0 0 0.25 0"/>
<feBlend mode="normal" in2="BackgroundImageFix" result="effect1_dropShadow_31_113"/>
<feBlend mode="normal" in="SourceGraphic" in2="effect1_dropShadow_31_113" result="shape"/>
</filter>
</defs>
</svg>
