<svg width="158" height="142" viewBox="0 0 158 142" fill="none" xmlns="http://www.w3.org/2000/svg">
<path d="M151.857 63.3688C151.857 65.6661 157.689 68.1139 157.846 75.1028C157.924 78.547 155.405 83.1451 152.412 85.2392C149.331 87.3938 145.773 86.9967 145.773 86.9967C145.773 86.9967 145.773 86.9967 113.969 86.9967C113.137 86.9967 106.979 88.9084 112.124 96.6609C115.552 102.717 118.187 108.432 119.832 113.163C122.181 119.662 120.964 128.102 120.237 130.424C116.849 141.27 109.419 142.621 105.187 141.715C103.468 141.345 102.029 136.83 101.964 135.37C101.537 125.998 100.241 119.741 98.4081 115.327C96.0952 109.766 92.9286 107.135 89.5691 104.894C83.1243 100.598 82.4081 95.5865 74.8908 78.4059C70.8869 69.2581 66.6823 67.4762 63.6238 66.9936C62.8488 66.8734 63.2821 66.6761 54.3428 66.4582C51.2419 66.3821 53.8887 70.6679 53.8887 70.6679C41.9946 70.4033 20.5748 70.4301 4.32393 70.5097C3.58266 70.5132 2.85263 70.5166 2.13471 70.521C0.734344 63.4517 0 56.1435 0 48.6635C0 31.2224 3.99178 14.713 11.1113 0C32.5951 0.0250838 56.8105 0.0544861 58.7013 0.0908144C58.7013 0.0908144 55.1559 9.48601 57.4523 9.5258C61.1613 9.5898 62.3004 9.6391 62.5919 9.66419C102.641 2.40718 120.276 4.32998 131.094 5.37658C136.03 5.85404 140.499 7.73533 143.522 10.1745C143.707 10.3233 143.887 10.4747 144.061 10.6278C144.062 10.6286 144.062 10.6295 144.063 10.6303C145.419 11.8248 146.431 13.1344 146.995 14.4673C147.832 16.4489 147.074 21.3662 147.074 22.61C147.074 25.1054 152.48 25.7801 154.159 30.8937C155.61 35.3137 152.153 39.5208 151.158 41.6798C150.097 43.9728 157.68 47.6783 157.848 52.7357C158.02 57.9472 151.857 62.2028 151.857 63.3688Z" fill="#6E14B3"/>
</svg>
